<svg xmlns="http://www.w3.org/2000/svg" xmlns:xlink="http://www.w3.org/1999/xlink" width="1366" zoomAndPan="magnify" viewBox="0 0 1024.5 576" height="768" preserveAspectRatio="xMidYMid meet" version="1.0"><defs><clipPath id="2074f0b8fc"><path d="M 546 147 L 1024 147 L 1024 575.859375 L 546 575.859375 Z M 546 147 " clip-rule="nonzero"/></clipPath><clipPath id="392d972d07"><path d="M 535.546875 762.324219 L 1059.78125 136.488281 L 1343.851562 374.4375 L 819.613281 1000.273438 Z M 535.546875 762.324219 " clip-rule="nonzero"/></clipPath><clipPath id="c272443948"><path d="M 552.875 741.636719 L 1042.101562 157.59375 C 1051.671875 146.171875 1068.691406 144.667969 1080.117188 154.238281 L 1322.808594 357.53125 C 1334.234375 367.101562 1335.738281 384.121094 1326.167969 395.546875 L 836.941406 979.585938 C 827.371094 991.011719 810.351562 992.515625 798.925781 982.945312 L 556.234375 779.652344 C 544.808594 770.082031 543.304688 753.058594 552.875 741.636719 Z M 552.875 741.636719 " clip-rule="nonzero"/></clipPath><clipPath id="434ab1d714"><path d="M 617 63 L 1024 63 L 1024 575.859375 L 617 575.859375 Z M 617 63 " clip-rule="nonzero"/></clipPath><clipPath id="c218be3bf2"><path d="M 601.789062 598.894531 L 1056.753906 57.859375 L 1254.121094 223.824219 L 799.15625 764.863281 Z M 601.789062 598.894531 " clip-rule="nonzero"/></clipPath><clipPath id="27cdad3cd2"><path d="M 601.789062 598.894531 L 1056.753906 57.859375 L 1254.121094 223.824219 L 799.15625 764.863281 Z M 601.789062 598.894531 " clip-rule="nonzero"/></clipPath></defs><g clip-path="url(#2074f0b8fc)"><g clip-path="url(#392d972d07)"><g clip-path="url(#c272443948)"><path fill="#fed100" d="M 535.546875 762.324219 L 1059.78125 136.488281 L 1343.851562 374.4375 L 819.613281 1000.273438 Z M 535.546875 762.324219 " fill-opacity="1" fill-rule="nonzero"/></g></g></g><g clip-path="url(#434ab1d714)"><g clip-path="url(#c218be3bf2)"><g clip-path="url(#27cdad3cd2)"><path fill="#fed100" d="M 1063.0625 76.183594 C 1069.132812 81.289062 1069 105.691406 1062.132812 99.917969 C 1070.066406 106.589844 1049.421875 117 1052.945312 119.964844 C 1063.765625 129.066406 1037.265625 135.007812 1034.300781 132.515625 C 1038.265625 135.851562 1017.25 145.75 1015.171875 144.003906 C 1007.761719 137.769531 993.582031 147.789062 998.433594 151.871094 C 997.910156 151.429688 990.464844 169.953125 988.714844 168.484375 C 987.039062 167.074219 967.09375 173.386719 973.773438 179.007812 C 973.847656 179.066406 963.066406 194.714844 957.398438 189.949219 C 972.238281 202.429688 953.011719 208.515625 953.929688 209.289062 C 954.851562 210.0625 948.585938 224.976562 951.800781 227.679688 C 962.945312 237.050781 942.59375 253.675781 939.148438 250.78125 C 942.179688 253.332031 916.230469 257.988281 916.675781 258.367188 C 911.988281 254.421875 899.644531 271.527344 898.226562 270.335938 C 899.527344 271.429688 877.132812 282.234375 884.996094 288.847656 C 888.65625 291.925781 877.746094 309.984375 877.449219 309.734375 C 884.609375 315.753906 868.667969 324.714844 874.492188 329.617188 C 873.546875 328.820312 865.40625 350.769531 864.296875 349.839844 C 872.59375 356.816406 847.40625 360.21875 854.539062 366.21875 C 856.074219 367.507812 826.039062 366.679688 835.113281 374.3125 C 835.183594 374.371094 835.160156 399.027344 828.730469 393.621094 C 827.488281 392.574219 815.652344 407.253906 818.789062 409.890625 C 821.082031 411.820312 803.554688 421.683594 807.242188 424.785156 C 802.511719 420.808594 789.304688 434.027344 789.160156 433.90625 C 783.261719 428.945312 769.75 442.140625 777.097656 448.320312 C 770.605469 442.863281 752.601562 455.664062 758.890625 460.953125 C 764.492188 465.664062 734.082031 464.242188 741.882812 470.800781 C 735.183594 465.167969 718.003906 478.304688 722.164062 481.800781 C 734.226562 491.945312 694.449219 489.128906 697.144531 491.398438 C 694.367188 489.0625 706.144531 523.742188 698.015625 516.910156 C 702.417969 520.609375 695.566406 541.214844 689.753906 536.328125 C 692.21875 538.398438 693.183594 563.097656 689.996094 560.417969 C 690.464844 560.8125 682.570312 583.730469 676.960938 579.015625 C 669.636719 572.855469 646.523438 579.492188 653.234375 585.136719 C 661.53125 592.117188 637.453125 601.832031 639.410156 603.476562 C 636.941406 601.386719 623.628906 612.21875 618 607.484375 C 617.378906 606.960938 617.742188 609.449219 618.28125 612.761719 L 782.445312 750.8125 C 782.890625 745.273438 788.628906 728.667969 793.296875 732.59375 C 796.085938 734.941406 811.117188 713.0625 811.382812 713.285156 C 820.089844 720.605469 814.710938 686.523438 813.84375 685.796875 C 814.367188 686.234375 829.554688 677.582031 834.605469 681.828125 C 839.558594 685.992188 843.453125 665.929688 841.496094 664.28125 C 842.9375 665.496094 825.1875 647.722656 826.597656 648.910156 C 835.511719 656.40625 823.859375 620.472656 832.789062 627.980469 C 836.890625 631.429688 854.089844 619.578125 847.265625 613.839844 C 844.152344 611.222656 863.503906 607.519531 865.515625 609.207031 C 858.4375 603.253906 883.417969 605.457031 882.804688 604.941406 C 884.464844 606.335938 888.914062 585.5 892.464844 588.484375 C 888.230469 584.925781 902.664062 574.523438 908.953125 579.8125 C 907.007812 578.175781 917.121094 563.277344 914.660156 561.207031 C 918.660156 564.570312 935.4375 554.660156 935.433594 554.660156 C 937.234375 556.175781 943.601562 537.882812 944.773438 538.863281 C 946.574219 540.382812 955.308594 521.941406 954.738281 521.460938 C 957.417969 523.714844 970.035156 509.738281 969.394531 509.203125 C 961.886719 502.886719 992.601562 505.480469 985.3125 499.351562 C 985.203125 499.257812 1008.394531 501.519531 1009.164062 502.167969 C 1015.511719 507.503906 1027.007812 491.039062 1020.230469 485.34375 C 1021.457031 486.375 1030.550781 469.675781 1031.5 470.476562 C 1033 471.734375 1035.355469 450.511719 1042.3125 456.363281 C 1041.988281 456.089844 1065.242188 441.777344 1064.285156 440.96875 C 1068.539062 444.546875 1076.207031 420.425781 1076.863281 420.976562 C 1074.765625 419.210938 1079.230469 393.34375 1079.59375 393.652344 C 1081.417969 395.1875 1096.242188 377.382812 1096.769531 377.828125 C 1098.210938 379.039062 1112.894531 364.589844 1112.445312 364.214844 C 1114.148438 365.644531 1119.554688 345.226562 1121.496094 346.859375 C 1120.414062 345.949219 1128.214844 328.960938 1128.199219 328.945312 C 1126.789062 327.761719 1146.277344 319.054688 1136.59375 310.910156 C 1137.789062 311.917969 1155.4375 301.15625 1151.847656 298.136719 C 1154.1875 300.105469 1169.070312 286.183594 1164.214844 282.101562 C 1165.246094 282.96875 1182.570312 271.671875 1179.90625 269.429688 C 1179.636719 269.203125 1204.796875 270.753906 1202.300781 268.652344 C 1204.667969 270.644531 1216.832031 250.082031 1212.835938 246.722656 C 1212.683594 246.59375 1234.4375 242.929688 1231.832031 240.742188 C 1234.261719 242.78125 1250.875 224.910156 1252.058594 225.90625 C 1246.890625 221.558594 1231.488281 205.527344 1238.964844 211.8125 C 1239.960938 212.65625 1239.613281 211.960938 1238.566406 210.46875 L 1063.652344 63.382812 C 1060.394531 67.339844 1058.550781 72.390625 1063.0625 76.183594 Z M 1063.0625 76.183594 " fill-opacity="1" fill-rule="nonzero"/></g></g></g></svg>